<mxfile host="app.diagrams.net" modified="2023-11-15T13:06:15.480Z" agent="Mozilla/5.0 (Windows NT 10.0; Win64; x64) AppleWebKit/537.36 (KHTML, like Gecko) Chrome/119.0.0.0 Safari/537.36 Edg/119.0.0.0" version="22.1.1" etag="70f5JV8wf218i2CeP-w8" type="github">
  <diagram name="Seite-1" id="6z0wCTS0dIWKEjs5NEin">
    <mxGraphModel>
      <root>
        <mxCell id="0" />
        <mxCell id="1" parent="0" />
      </root>
    </mxGraphModel>
  </diagram>
</mxfile>
